<svg width="52" height="50" viewBox="0 0 52 50" fill="none" xmlns="http://www.w3.org/2000/svg">
<path fill-rule="evenodd" clip-rule="evenodd" d="M28.2744 5.09538V0.106605L22.8308 0.0458984L20.79 3.43218L23.2848 5.92781L28.2744 5.09538ZM22.4532 10.9166L15.8004 4.26295L12.474 7.59018L18.1472 12.643L22.4532 10.9166ZM29.4478 14.8076L26.1264 12.3918L26.7301 9.675L32.4324 9.25421L39.9168 15.0746L38.2536 20.0642L35.7588 21.7282L33.264 20.0642V17.5694L30.7692 14.243L29.4478 14.8076ZM49.0644 47.507H47.4012C46.942 47.507 46.5696 47.1347 46.5696 46.6754C46.5696 46.2161 46.942 45.8438 47.4012 45.8438H49.0644C49.5237 45.8438 49.896 46.2161 49.896 46.6754C49.896 47.1347 49.5237 47.507 49.0644 47.507ZM49.0644 35.8646H50.7277C51.1869 35.8646 51.5593 35.4923 51.5593 35.033C51.5593 34.5737 51.1869 34.2014 50.7277 34.2014H49.0644C48.6052 34.2014 48.2328 34.5737 48.2328 35.033C48.2328 35.4923 48.6052 35.8646 49.0644 35.8646ZM39.0852 35.8646L44.0748 32.5382V29.2118L39.0852 24.2222L35.7588 27.5486L32.4324 24.2222L29.106 26.717L32.4324 30.875L29.9376 35.8646L27.4428 31.7066L21.6216 29.2118L24.948 22.559L27.4428 19.2326L21.6216 15.9062L18.2952 19.2326L7.48441 8.42178L0.831601 15.9062L2.78586 23.9577L0 26.717L2.4948 34.2014L22.4532 44.1806L24.948 40.0226L29.9376 43.349L33.264 50.0018L37.422 43.349H44.0748L44.9064 38.3594L39.0852 35.8646Z" fill="#0E8784"/>
</svg>
