<svg width="49" height="44" viewBox="0 0 49 44" fill="none" xmlns="http://www.w3.org/2000/svg">
<path fill-rule="evenodd" clip-rule="evenodd" d="M4.12213 32.8788C4.60545 29.7869 3.25319 26.6175 1.79811 23.7014C1.60829 23.3213 1.41741 22.9455 1.22904 22.5746C0.830641 21.7901 0.443482 21.0278 0.101358 20.2941C-0.00147482 20.0718 -0.0271831 19.8184 0.0293751 19.5754L0.949732 15.7183C1.03714 15.3461 1.31479 15.0462 1.67985 14.9324C3.6491 14.312 9.93735 12.0784 10.5029 8.79518C10.5132 8.72796 10.5492 8.67109 10.5955 8.62455L15.9582 3.42831C16.092 3.29905 16.3079 3.31457 16.4262 3.45934C16.9301 4.09529 18.3337 5.51198 20.4212 4.81398L19.7733 4.15734C19.6448 4.03325 19.65 3.82643 19.7785 3.70234L22.2311 1.37567C22.2876 1.3188 22.3647 1.28777 22.447 1.28777H29.923C30.1904 1.28777 30.3394 1.60317 30.1698 1.80998L27.7686 4.74159C27.6504 4.89153 27.6812 5.10869 27.8406 5.2121C28.3202 5.52584 29.3175 6.18071 30.372 6.87316C31.1944 7.41315 32.0516 7.97599 32.7252 8.41774C33.5068 8.92961 34.5609 8.60904 34.9155 7.74042C35.3115 6.77355 35.6816 5.26897 35.6868 3.03019C35.6868 2.994 35.692 2.95264 35.7073 2.91645L36.746 0.217503C36.8436 -0.0306755 37.183 -0.0565274 37.3167 0.17614C37.8258 1.06545 38.7358 2.95264 38.7358 5.15522L39.2345 4.7933C39.3734 4.68989 39.5687 4.72091 39.6716 4.85534L40.7616 6.28237C40.8079 6.34441 40.8284 6.42714 40.8233 6.50469C40.7513 7.27508 40.5508 11.52 44.258 13.221C44.3248 13.2521 44.3814 13.3038 44.4122 13.371L48.9369 22.4709C48.9575 22.5174 48.9677 22.5639 48.9677 22.6156V26.4469C48.9677 27.0312 48.7209 27.5844 48.2838 27.9722C46.51 29.5543 41.8722 33.944 41.5894 36.9842C41.574 37.1445 41.4403 37.2686 41.2758 37.2686H33.3011C33.2497 37.2686 33.1983 37.2582 33.152 37.2324C32.6378 36.9532 29.923 33.3753 29.3729 29.9059C29.3317 29.6474 29.0078 29.5492 28.8279 29.7456L27.0436 31.7311C26.8791 31.9172 26.6426 32.0206 26.3958 32.0206C26.1232 32.0206 25.8919 31.8241 25.8457 31.5553C25.64 30.3454 24.7248 27.1811 20.8891 27.1811C18.8324 27.1811 15.6292 27.9774 12.6573 28.877C12.6573 28.877 9.36663 29.9111 6.93462 33.2201C6.85236 33.3339 6.71867 33.4011 6.57471 33.4011H4.56946C4.29181 33.4011 4.081 33.1529 4.12213 32.8788ZM40.5199 43.2041C40.3503 43.8711 39.5739 44.171 39.0031 43.7832C37.9543 43.0697 36.3706 41.8236 34.936 39.9933C34.7253 39.7244 34.9155 39.3263 35.26 39.3263H40.9673C41.2397 39.3263 41.4351 39.5797 41.3683 39.8434L40.5199 43.2041Z" fill="#0E8784"/>
</svg>
